<svg xmlns="http://www.w3.org/2000/svg" viewBox="-40 -22 1000 1000"><path fill="#ffffff" fill-rule="evenodd" d="M671.00,937.82C662.48,929.48 640.65,907.98 622.50,890.03C593.43,861.29 502.22,771.29 400.00,670.50C381.57,652.33 353.90,625.04 338.50,609.85C323.10,594.67 307.12,579.05 303.00,575.15L295.50,568.06L374.75,488.78C418.34,445.17 454.00,409.17 454.00,408.78C454.00,408.39 429.14,408.06 398.75,408.04L343.50,408.02L343.50,361.76L343.50,315.50L477.00,315.50L610.50,315.50L610.75,439.75L611.01,564.00L569.50,564.00L528.00,564.00L528.00,521.25L528.00,478.50L484.75,521.78L441.50,565.05L455.50,578.73C463.20,586.26 478.50,601.22 489.50,611.98C500.50,622.74 528.17,649.75 551.00,672.00C573.83,694.24 604.53,724.37 619.24,738.93C633.95,753.49 646.59,765.75 647.32,766.16C648.78,766.97 661.74,757.68 675.50,745.96C685.90,737.10 709.08,713.69 717.55,703.50C766.68,644.33 795.94,573.25 803.09,495.62C804.57,479.59 803.70,436.02 801.59,420.50C794.41,367.54 777.76,320.16 751.18,277.00C732.83,247.21 705.82,215.99 679.19,193.81C629.35,152.28 570.53,126.65 504.00,117.49C488.07,115.29 446.95,114.42 430.00,115.92C339.04,123.97 255.43,167.23 196.00,237.00C184.26,250.79 181.30,254.65 171.72,268.71C117.38,348.46 98.39,448.95 119.60,544.50C127.69,580.93 143.38,619.35 163.20,651.25C178.51,675.91 193.80,695.01 215.41,716.50C262.52,763.33 320.54,795.21 384.50,809.39C403.82,813.67 419.22,815.76 440.43,816.96L456.36,817.87L506.16,867.66C533.55,895.04 555.63,917.74 555.23,918.11C552.99,920.14 512.04,926.40 490.00,928.08C472.65,929.40 423.93,928.76 410.00,927.03C364.83,921.43 320.86,908.69 276.83,888.46C166.94,837.96 77.73,745.49 34.24,637.00C-12.90,519.41 -9.41,385.85 43.85,269.18C77.78,194.87 134.61,127.86 203.23,81.24C286.14,24.92 385.26,-3.23 482.78,1.84C620.27,8.99 743.81,74.54 826.07,184.00C842.73,206.17 855.80,227.74 869.98,256.50C886.43,289.83 895.53,314.47 904.56,350.09C918.34,404.44 922.28,466.21 915.44,520.50C905.13,602.19 874.64,677.23 825.44,742.03C801.27,773.86 769.53,806.21 740.25,828.83C736.26,831.92 733.00,834.75 733.00,835.13C733.00,835.52 735.63,838.23 738.85,841.17C756.02,856.83 857.00,952.08 857.00,952.61C857.00,952.82 818.64,952.99 771.75,952.99L686.50,952.97L671.00,937.82Z"/></svg>